<?xml version="1.0" encoding="UTF-8"?><svg id="Layer_1" xmlns="http://www.w3.org/2000/svg" viewBox="0 0 118.78 27.12"><defs><style>.cls-1{fill:#394149;}</style></defs><path class="cls-1" d="m34.4,7.64h3v12.13h-3V7.64Zm4.19,7.55c0-3,1.84-4.79,4.68-4.79s4.68,1.79,4.68,4.79-1.8,4.8-4.68,4.8-4.68-1.75-4.68-4.8Zm6.35,0c0-1.65-.65-2.62-1.67-2.62s-1.66,1-1.66,2.62.63,2.6,1.66,2.6,1.67-.92,1.67-2.59h0Zm4.14,5.16h2.88c.28.63.94.99,1.62.9,1.14,0,1.74-.62,1.74-1.52v-1.68h-.06c-.49,1.05-1.57,1.7-2.73,1.64-2.19,0-3.64-1.67-3.64-4.54s1.38-4.68,3.68-4.68c1.2-.05,2.3.65,2.76,1.76h0v-1.67h3v9.1c0,2.19-1.93,3.55-4.78,3.55-2.65,0-4.3-1.19-4.47-2.85h0Zm6.25-5.19c0-1.46-.67-2.38-1.73-2.38s-1.71.91-1.71,2.38.64,2.3,1.71,2.3,1.73-.81,1.73-2.29h0Zm4.13,0c0-3,1.84-4.79,4.68-4.79s4.69,1.79,4.69,4.79-1.8,4.8-4.69,4.8-4.68-1.74-4.68-4.79h0Zm6.35,0c0-1.65-.65-2.62-1.67-2.62s-1.61,1.01-1.61,2.64.63,2.6,1.65,2.6,1.63-.93,1.63-2.6v-.02Zm4.16-6.79c-.02-.84.65-1.55,1.49-1.57s1.55.65,1.57,1.49c.02.84-.65,1.55-1.49,1.57,0,0,0,0,0,0-.8.06-1.5-.55-1.56-1.36,0-.04,0-.08,0-.11v-.02Zm0,2.2h3v9.18h-3v-9.18Zm13.89,4.59c0,3-1.33,4.71-3.61,4.71-1.2.08-2.32-.6-2.8-1.7h-.06v4.52h-3v-12.14h3v1.64h.06c.46-1.12,1.57-1.82,2.78-1.77,2.3.04,3.67,1.76,3.67,4.76l-.04-.02Zm-3,0c0-1.46-.67-2.39-1.72-2.39s-1.72.94-1.73,2.39.68,2.38,1.73,2.38,1.72-.91,1.72-2.36v-.02Zm8.15-4.8c2.49,0,4,1.18,4.07,3.07h-2.73c0-.65-.54-1.06-1.37-1.06s-1.2.32-1.2.79.33.62,1,.76l1.92.39c1.83.39,2.61,1.13,2.61,2.52,0,1.9-1.73,3.12-4.28,3.12s-4.22-1.22-4.35-3.09h2.89c.09.68.63,1.08,1.51,1.08s1.28-.29,1.28-.77-.28-.58-1-.73l-1.73-.37c-1.79-.37-2.73-1.32-2.73-2.72.02-1.8,1.63-2.97,4.11-2.97v-.02Zm14.31,9.37h-2.89v-1.71h-.06c-.33,1.18-1.43,1.98-2.66,1.91-1.76.1-3.27-1.24-3.37-3,0-.15,0-.3,0-.45v-5.93h3v5.24c0,1.09.56,1.67,1.49,1.67.85,0,1.53-.68,1.53-1.53,0-.07,0-.14-.01-.2v-5.18h3l-.04,9.18Zm1.45-9.18h2.9v1.77h.06c.33-1.17,1.4-1.96,2.61-1.94,1.24-.1,2.35.77,2.55,2h.06c.37-1.23,1.53-2.06,2.82-2,1.61-.05,2.95,1.2,3.01,2.81,0,.1,0,.21,0,.31v6.25h-3v-5.45c0-1-.45-1.46-1.29-1.46-.72,0-1.31.58-1.32,1.3,0,.06,0,.12.01.18v5.43h-2.85v-5.49c0-.92-.45-1.42-1.27-1.42-.74,0-1.34.6-1.34,1.34,0,.05,0,.11,0,.16v5.41h-3l.05-9.2Z"/><path class="cls-1" d="m26.01,8.19c-.51-1.16-1.18-2.25-2-3.22C19.28-.82,10.76-1.68,4.97,3.05-.82,7.78-1.68,16.3,3.05,22.09c.67.82,1.43,1.56,2.28,2.2.98.76,2.05,1.37,3.2,1.83,1.61.66,3.33,1,5.07,1,7.47-.02,13.52-6.08,13.53-13.55,0-1.85-.38-3.68-1.12-5.38ZM13.59,2.76c1.56,0,3.1.34,4.52,1h0c-.35.15-.71.25-1.08.31-2.51.36-4.49,2.34-4.85,4.85-.16,1.41-1.29,2.52-2.71,2.65-2.51.36-4.49,2.34-4.85,4.85-.06.65-.34,1.27-.79,1.74h0c-2.55-5.39-.25-11.83,5.14-14.38,1.45-.68,3.03-1.04,4.63-1.04v.02ZM5.32,20.57c.12-.11.24-.21.36-.33.89-.86,1.46-2,1.62-3.23.06-.69.37-1.34.87-1.82.48-.5,1.12-.8,1.81-.86,2.51-.36,4.49-2.34,4.85-4.85.04-.72.35-1.4.87-1.91.49-.49,1.14-.78,1.83-.83,1.12-.15,2.17-.65,3-1.43.94.78,1.74,1.72,2.36,2.78-.04.05-.08.1-.13.14-.48.5-1.12.81-1.81.88-2.52.36-4.49,2.33-4.85,4.85-.15,1.42-1.27,2.54-2.69,2.68-2.52.36-4.5,2.33-4.88,4.85-.05.49-.22.96-.49,1.37-1.03-.61-1.94-1.38-2.72-2.29Zm8.27,3.86c-1.01,0-2.02-.14-3-.42.33-.62.55-1.3.64-2,.14-1.42,1.26-2.54,2.68-2.68,2.52-.36,4.5-2.33,4.86-4.85.14-1.42,1.26-2.54,2.68-2.68.92-.12,1.8-.46,2.56-1,1.52,5.78-1.92,11.7-7.7,13.22-.89.23-1.8.35-2.72.36v.05Z"/></svg>